<svg height="32" node-id="1" sillyvg="true" template-height="32" template-width="32" version="1.1" viewBox="0 0 32 32" width="32" xmlns="http://www.w3.org/2000/svg" xmlns:xlink="http://www.w3.org/1999/xlink"><defs node-id="101"><linearGradient gradientUnits="objectBoundingBox" id="paint8_linear_31_84" node-id="71" spreadMethod="pad" x1="6.83333" x2="6.83333" y1="11.4" y2="9.6"><stop offset="0.0299084" stop-color="#524049"/><stop offset="1" stop-color="#4a2c42"/></linearGradient><linearGradient gradientUnits="objectBoundingBox" id="paint9_linear_31_84" node-id="74" spreadMethod="pad" x1="25.1667" x2="25.1667" y1="11.4" y2="9.6"><stop offset="0.0299084" stop-color="#524049"/><stop offset="1" stop-color="#4a2c42"/></linearGradient><linearGradient gradientUnits="objectBoundingBox" id="paint12_linear_31_84" node-id="83" spreadMethod="pad" x1="16" x2="16" y1="22" y2="25"><stop offset="0" stop-color="#2962f3"/><stop offset="0.160122" stop-color="#3e7aff"/><stop offset="0.253876" stop-color="#4588ff"/><stop offset="0.535137" stop-color="#4170ff"/><stop offset="1" stop-color="#3e69ff"/></linearGradient><radialGradient cx="0" cy="0" fx="0" fy="0" gradientUnits="objectBoundingBox" id="paint0_radial_31_84" node-id="45" r="1" rev="12" spreadMethod="pad"><stop offset="0" stop-color="#fff478"/><stop offset="0.474827" stop-color="#ffb02e"/><stop offset="1" stop-color="#f70a8d"/></radialGradient><radialGradient cx="0" cy="0" fx="0" fy="0" gradientUnits="objectBoundingBox" id="paint1_radial_31_84" node-id="49" r="1" rev="11" spreadMethod="pad"><stop offset="0" stop-color="#fff478"/><stop offset="0.474827" stop-color="#ffb02e"/><stop offset="1" stop-color="#f70a8d"/></radialGradient><radialGradient cx="0" cy="0" fx="0" fy="0" gradientUnits="objectBoundingBox" id="paint2_radial_31_84" node-id="53" r="1" rev="10" spreadMethod="pad"><stop offset="0.787821" stop-color="#f59639" stop-opacity="0"/><stop offset="0.972509" stop-color="#ff7dce"/></radialGradient><radialGradient cx="0" cy="0" fx="0" fy="0" gradientUnits="objectBoundingBox" id="paint3_radial_31_84" node-id="56" r="1" rev="9" spreadMethod="pad"><stop offset="0.314853" stop-color="#000000" stop-opacity="0"/><stop offset="1" stop-color="#000000"/></radialGradient><radialGradient cx="0" cy="0" fx="0" fy="0" gradientUnits="objectBoundingBox" id="paint4_radial_31_84" node-id="59" r="1" rev="8" spreadMethod="pad"><stop offset="0.507903" stop-color="#7d6133" stop-opacity="0"/><stop offset="1" stop-color="#715b32"/></radialGradient><radialGradient cx="0" cy="0" fx="0" fy="0" gradientUnits="objectBoundingBox" id="paint5_radial_31_84" node-id="62" r="1" rev="7" spreadMethod="pad"><stop offset="0" stop-color="#ffb849"/><stop offset="1" stop-color="#ffb847" stop-opacity="0"/></radialGradient><radialGradient cx="0" cy="0" fx="0" fy="0" gradientUnits="objectBoundingBox" id="paint6_radial_31_84" node-id="65" r="1" rev="6" spreadMethod="pad"><stop offset="0" stop-color="#ffa64b"/><stop offset="0.900412" stop-color="#ffae46" stop-opacity="0"/></radialGradient><radialGradient cx="0" cy="0" fx="0" fy="0" gradientUnits="objectBoundingBox" id="paint7_radial_31_84" node-id="68" r="1" rev="5" spreadMethod="pad"><stop offset="0.185425" stop-color="#000000" stop-opacity="0"/><stop offset="1" stop-color="#000000" stop-opacity="0.4"/></radialGradient><radialGradient cx="0" cy="0" fx="0" fy="0" gradientUnits="objectBoundingBox" id="paint10_radial_31_84" node-id="77" r="1" rev="4" spreadMethod="pad"><stop offset="0" stop-color="#c20aa5"/><stop offset="1" stop-color="#c20a78" stop-opacity="0"/></radialGradient><radialGradient cx="0" cy="0" fx="0" fy="0" gradientUnits="objectBoundingBox" id="paint11_radial_31_84" node-id="80" r="1" rev="3" spreadMethod="pad"><stop offset="0" stop-color="#f70a8d"/><stop offset="1" stop-color="#89029c"/></radialGradient><radialGradient cx="0" cy="0" fx="0" fy="0" gradientUnits="objectBoundingBox" id="paint13_radial_31_84" node-id="89" r="1" rev="2" spreadMethod="pad"><stop offset="0" stop-color="#323fff"/><stop offset="1" stop-color="#323fff" stop-opacity="0"/></radialGradient><radialGradient cx="0" cy="0" fx="0" fy="0" gradientUnits="objectBoundingBox" id="paint14_radial_31_84" node-id="92" r="1" rev="1" spreadMethod="pad"><stop offset="0.408311" stop-color="#325cff"/><stop offset="0.574014" stop-color="#4889ff"/><stop offset="0.739718" stop-color="#3c6bf7"/><stop offset="0.899655" stop-color="#3f72ff"/><stop offset="1" stop-color="#3156fe"/></radialGradient><filter filterUnits="objectBoundingBox" height="7.00012" id="filter0_f_31_84" node-id="29" width="10.0002" x="4.99988" y="9"><feFlood color-interpolation-filters="sRGB" flood-color="#000000" flood-opacity="0" result="BackgroundImageFix"></feFlood><feBlend color-interpolation-filters="sRGB" in="SourceGraphic" in2="BackgroundImageFix" mode="normal" result="shape"></feBlend><feGaussianBlur color-interpolation-filters="sRGB" in="shape" result="effect1_foregroundBlur_31_84" stdDeviation="0.75 0.75"></feGaussianBlur></filter><filter filterUnits="objectBoundingBox" height="7.0002403" id="filter1_f_31_84" node-id="33" width="10.0005" x="15.9998" y="9"><feFlood color-interpolation-filters="sRGB" flood-color="#000000" flood-opacity="0" result="BackgroundImageFix"></feFlood><feBlend color-interpolation-filters="sRGB" in="SourceGraphic" in2="BackgroundImageFix" mode="normal" result="shape"></feBlend><feGaussianBlur color-interpolation-filters="sRGB" in="shape" result="effect1_foregroundBlur_31_84" stdDeviation="0.75 0.75"></feGaussianBlur></filter><filter filterUnits="objectBoundingBox" height="5.75006" id="filter2_f_31_84" node-id="37" width="8.75" x="6.375" y="8.875"><feFlood color-interpolation-filters="sRGB" flood-color="#000000" flood-opacity="0" result="BackgroundImageFix"></feFlood><feBlend color-interpolation-filters="sRGB" in="SourceGraphic" in2="BackgroundImageFix" mode="normal" result="shape"></feBlend><feGaussianBlur color-interpolation-filters="sRGB" in="shape" result="effect1_foregroundBlur_31_84" stdDeviation="0.75 0.75"></feGaussianBlur></filter><filter filterUnits="objectBoundingBox" height="5.75006" id="filter3_f_31_84" node-id="41" width="8.75" x="17.375" y="8.875"><feFlood color-interpolation-filters="sRGB" flood-color="#000000" flood-opacity="0" result="BackgroundImageFix"></feFlood><feBlend color-interpolation-filters="sRGB" in="SourceGraphic" in2="BackgroundImageFix" mode="normal" result="shape"></feBlend><feGaussianBlur color-interpolation-filters="sRGB" in="shape" result="effect1_foregroundBlur_31_84" stdDeviation="0.75 0.75"></feGaussianBlur></filter><clipPath id="clip0_31_84" node-id="98"><path d="M 0.00 0.00 L 32.00 0.00 L 32.00 32.00 L 0.00 32.00 Z" fill="#000000" fill-rule="nonzero" node-id="242" stroke="none" target-height="32" target-width="32" target-x="0" target-y="0"/></clipPath></defs><g clip-path="url(#clip0_31_84)" id="sillyvg_g_0" node-id="246"><path d="M 16.00 30.00 L 19.10 29.70 L 21.60 29.10 L 23.80 28.10 L 25.70 26.70 L 27.20 25.00 L 28.40 23.10 L 29.80 18.60 L 30.00 16.00 L 29.80 13.40 L 28.40 8.90 L 27.20 7.00 L 25.70 5.30 L 23.80 3.90 L 21.60 2.90 L 19.10 2.30 L 16.00 2.00 L 12.90 2.30 L 10.40 2.90 L 8.20 3.90 L 6.30 5.30 L 4.80 7.00 L 3.60 8.90 L 2.20 13.40 L 2.00 16.00 L 2.20 18.60 L 3.60 23.10 L 4.80 25.00 L 6.30 26.70 L 8.20 28.10 L 10.40 29.10 L 12.90 29.70 L 16.00 30.00 Z" fill="url(#paint0_radial_31_84)" fill-rule="nonzero" node-id="248" stroke="none" target-height="28" target-width="28" target-x="2" target-y="2"/><path d="M 16.00 30.00 L 19.10 29.70 L 21.60 29.10 L 23.80 28.10 L 25.70 26.70 L 27.20 25.00 L 28.40 23.10 L 29.80 18.60 L 30.00 16.00 L 29.80 13.40 L 28.40 8.90 L 27.20 7.00 L 25.70 5.30 L 23.80 3.90 L 21.60 2.90 L 19.10 2.30 L 16.00 2.00 L 12.90 2.30 L 10.40 2.90 L 8.20 3.90 L 6.30 5.30 L 4.80 7.00 L 3.60 8.90 L 2.20 13.40 L 2.00 16.00 L 2.20 18.60 L 3.60 23.10 L 4.80 25.00 L 6.30 26.70 L 8.20 28.10 L 10.40 29.10 L 12.90 29.70 L 16.00 30.00 Z" fill="url(#paint1_radial_31_84)" fill-rule="nonzero" node-id="250" stroke="none" target-height="28" target-width="28" target-x="2" target-y="2"/><path d="M 16.00 30.00 L 19.10 29.70 L 21.60 29.10 L 23.80 28.10 L 25.70 26.70 L 27.20 25.00 L 28.40 23.10 L 29.80 18.60 L 30.00 16.00 L 29.80 13.40 L 28.40 8.90 L 27.20 7.00 L 25.70 5.30 L 23.80 3.90 L 21.60 2.90 L 19.10 2.30 L 16.00 2.00 L 12.90 2.30 L 10.40 2.90 L 8.20 3.90 L 6.30 5.30 L 4.80 7.00 L 3.60 8.90 L 2.20 13.40 L 2.00 16.00 L 2.20 18.60 L 3.60 23.10 L 4.80 25.00 L 6.30 26.70 L 8.20 28.10 L 10.40 29.10 L 12.90 29.70 L 16.00 30.00 Z" fill="url(#paint2_radial_31_84)" fill-rule="nonzero" node-id="252" stroke="none" target-height="28" target-width="28" target-x="2" target-y="2"/><path d="M 16.00 30.00 L 19.10 29.70 L 21.60 29.10 L 23.80 28.10 L 25.70 26.70 L 27.20 25.00 L 28.40 23.10 L 29.80 18.60 L 30.00 16.00 L 29.80 13.40 L 28.40 8.90 L 27.20 7.00 L 25.70 5.30 L 23.80 3.90 L 21.60 2.90 L 19.10 2.30 L 16.00 2.00 L 12.90 2.30 L 10.40 2.90 L 8.20 3.90 L 6.30 5.30 L 4.80 7.00 L 3.60 8.90 L 2.20 13.40 L 2.00 16.00 L 2.20 18.60 L 3.60 23.10 L 4.80 25.00 L 6.30 26.70 L 8.20 28.10 L 10.40 29.10 L 12.90 29.70 L 16.00 30.00 Z" fill="url(#paint3_radial_31_84)" fill-opacity="0.6" fill-rule="nonzero" node-id="254" stroke="none" target-height="28" target-width="28" target-x="2" target-y="2"/><path d="M 16.00 30.00 L 19.10 29.70 L 21.60 29.10 L 23.80 28.10 L 25.70 26.70 L 27.20 25.00 L 28.40 23.10 L 29.80 18.60 L 30.00 16.00 L 29.80 13.40 L 28.40 8.90 L 27.20 7.00 L 25.70 5.30 L 23.80 3.90 L 21.60 2.90 L 19.10 2.30 L 16.00 2.00 L 12.90 2.30 L 10.40 2.90 L 8.20 3.90 L 6.30 5.30 L 4.80 7.00 L 3.60 8.90 L 2.20 13.40 L 2.00 16.00 L 2.20 18.60 L 3.60 23.10 L 4.80 25.00 L 6.30 26.70 L 8.20 28.10 L 10.40 29.10 L 12.90 29.70 L 16.00 30.00 Z" fill="url(#paint4_radial_31_84)" fill-rule="nonzero" node-id="256" stroke="none" target-height="28" target-width="28" target-x="2" target-y="2"/><path d="M 16.00 30.00 L 19.10 29.70 L 21.60 29.10 L 23.80 28.10 L 25.70 26.70 L 27.20 25.00 L 28.40 23.10 L 29.80 18.60 L 30.00 16.00 L 29.80 13.40 L 28.40 8.90 L 27.20 7.00 L 25.70 5.30 L 23.80 3.90 L 21.60 2.90 L 19.10 2.30 L 16.00 2.00 L 12.90 2.30 L 10.40 2.90 L 8.20 3.90 L 6.30 5.30 L 4.80 7.00 L 3.60 8.90 L 2.20 13.40 L 2.00 16.00 L 2.20 18.60 L 3.60 23.10 L 4.80 25.00 L 6.30 26.70 L 8.20 28.10 L 10.40 29.10 L 12.90 29.70 L 16.00 30.00 Z" fill="url(#paint5_radial_31_84)" fill-rule="nonzero" node-id="258" stroke="none" target-height="28" target-width="28" target-x="2" target-y="2"/><path d="M 16.00 30.00 L 19.10 29.70 L 21.60 29.10 L 23.80 28.10 L 25.70 26.70 L 27.20 25.00 L 28.40 23.10 L 29.80 18.60 L 30.00 16.00 L 29.80 13.40 L 28.40 8.90 L 27.20 7.00 L 25.70 5.30 L 23.80 3.90 L 21.60 2.90 L 19.10 2.30 L 16.00 2.00 L 12.90 2.30 L 10.40 2.90 L 8.20 3.90 L 6.30 5.30 L 4.80 7.00 L 3.60 8.90 L 2.20 13.40 L 2.00 16.00 L 2.20 18.60 L 3.60 23.10 L 4.80 25.00 L 6.30 26.70 L 8.20 28.10 L 10.40 29.10 L 12.90 29.70 L 16.00 30.00 Z" fill="url(#paint6_radial_31_84)" fill-rule="nonzero" node-id="260" stroke="none" target-height="28" target-width="28" target-x="2" target-y="2"/><path d="M 16.00 30.00 L 19.10 29.70 L 21.60 29.10 L 23.80 28.10 L 25.70 26.70 L 27.20 25.00 L 28.40 23.10 L 29.80 18.60 L 30.00 16.00 L 29.80 13.40 L 28.40 8.90 L 27.20 7.00 L 25.70 5.30 L 23.80 3.90 L 21.60 2.90 L 19.10 2.30 L 16.00 2.00 L 12.90 2.30 L 10.40 2.90 L 8.20 3.90 L 6.30 5.30 L 4.80 7.00 L 3.60 8.90 L 2.20 13.40 L 2.00 16.00 L 2.20 18.60 L 3.60 23.10 L 4.80 25.00 L 6.30 26.70 L 8.20 28.10 L 10.40 29.10 L 12.90 29.70 L 16.00 30.00 Z" fill="url(#paint7_radial_31_84)" fill-rule="nonzero" node-id="262" stroke="none" target-height="28" target-width="28" target-x="2" target-y="2"/><path d="M 7.50 13.50 L 8.40 12.00 L 10.00 11.50 L 11.60 12.00 L 12.50 13.50" fill="none" filter="url(#filter0_f_31_84)" group-id="1" node-id="266" stroke="#9a4609" stroke-linecap="round" stroke-opacity="0.5" stroke-width="2" target-height="2" target-width="5" target-x="7.5" target-y="11.5"/><path d="M 18.50 13.50 L 19.50 12.00 L 21.00 11.50 L 22.50 12.00 L 23.50 13.50" fill="none" filter="url(#filter1_f_31_84)" group-id="2" node-id="271" stroke="#9a4609" stroke-linecap="round" stroke-opacity="0.5" stroke-width="2" target-height="2" target-width="5" target-x="18.5" target-y="11.5"/><path d="M 8.00 13.00 L 8.90 11.50 L 10.50 11.00 L 12.10 11.50 L 13.00 13.00" fill="none" node-id="274" stroke="#43273b" stroke-linecap="round" stroke-width="2" target-height="2" target-width="5" target-x="8" target-y="11"/><path d="M 8.30 12.80 L 9.10 11.30 L 10.80 10.80 L 12.40 11.30 L 13.20 12.80" fill="none" filter="url(#filter2_f_31_84)" group-id="3" node-id="278" stroke="#ffffff" stroke-linecap="round" stroke-opacity="0.26" stroke-width="0.75" target-height="2" target-width="4.8999996" target-x="8.3" target-y="10.8"/><path d="M 19.00 13.00 L 20.00 11.50 L 21.50 11.00 L 23.00 11.50 L 24.00 13.00" fill="none" node-id="281" stroke="#43273b" stroke-linecap="round" stroke-width="2" target-height="2" target-width="5" target-x="19" target-y="11"/><path d="M 19.30 12.80 L 20.10 11.30 L 21.80 10.80 L 23.40 11.30 L 24.30 12.80" fill="none" filter="url(#filter3_f_31_84)" group-id="4" node-id="285" stroke="#ffffff" stroke-linecap="round" stroke-opacity="0.26" stroke-width="0.75" target-height="2" target-width="5" target-x="19.3" target-y="10.8"/><path d="M 6.50 10.50 L 7.70 8.60 L 8.90 7.80 L 10.50 7.50" fill="none" node-id="288" stroke="url(#paint8_linear_31_84)" stroke-linecap="round" stroke-width="1" target-height="3" target-width="4" target-x="6.5" target-y="7.5"/><path d="M 25.50 10.50 L 24.30 8.60 L 23.10 7.80 L 21.50 7.50" fill="none" node-id="290" stroke="url(#paint9_linear_31_84)" stroke-linecap="round" stroke-width="1" target-height="3" target-width="4" target-x="21.5" target-y="7.5"/><path d="M 11.60 21.50 L 18.10 21.50 L 19.70 24.40 L 19.70 31.10 L 11.60 29.00 L 11.60 21.50 Z" fill="url(#paint10_radial_31_84)" fill-rule="nonzero" node-id="292" stroke="none" target-height="9.6" target-width="8.1" target-x="11.6" target-y="21.5"/><path d="M 16.00 25.00 L 13.00 24.50 L 10.70 22.80 L 9.40 20.20 L 9.00 18.00 L 23.00 18.00 L 22.60 20.20 L 21.30 22.80 L 19.00 24.50 L 16.00 25.00 Z" fill="url(#paint11_radial_31_84)" fill-rule="nonzero" node-id="294" stroke="none" target-height="7" target-width="14" target-x="9" target-y="18"/><path d="M 10.20 22.00 L 12.20 24.10 L 13.80 24.70 L 16.00 25.00 L 18.20 24.70 L 19.80 24.10 L 21.80 22.00 L 10.20 22.00 Z" fill="url(#paint12_linear_31_84)" fill-rule="evenodd" node-id="296" stroke="none" target-height="3" target-width="11.599999" target-x="10.2" target-y="22"/><path d="M 10.20 22.00 L 12.20 24.10 L 13.80 24.70 L 16.00 25.00 L 18.20 24.70 L 19.80 24.10 L 21.80 22.00 L 10.20 22.00 Z" fill="url(#paint13_radial_31_84)" fill-rule="evenodd" node-id="298" stroke="none" target-height="3" target-width="11.599999" target-x="10.2" target-y="22"/><path d="M 16.00 23.50 L 16.20 25.80 L 17.30 26.20 L 17.90 27.60 L 19.20 27.90 L 20.00 26.80 L 20.00 23.90 L 21.80 22.00 L 16.90 22.10 L 16.10 22.90 L 16.00 23.50 Z" fill="url(#paint14_radial_31_84)" fill-rule="evenodd" node-id="300" stroke="none" target-height="5.8999996" target-width="5.799999" target-x="16" target-y="22"/></g></svg>