<?xml version="1.0" standalone="no"?><!DOCTYPE svg PUBLIC "-//W3C//DTD SVG 1.1//EN" "http://www.w3.org/Graphics/SVG/1.1/DTD/svg11.dtd"><svg t="1754705713432" class="icon" viewBox="0 0 1024 1024" version="1.1" xmlns="http://www.w3.org/2000/svg" p-id="8888" xmlns:xlink="http://www.w3.org/1999/xlink" width="200" height="200"><path d="M424.413867 165.000533v433.493334H859.136a388.061867 388.061867 0 0 1-111.684267 229.7856 388.539733 388.539733 0 0 1-124.177066 83.626666c-48.093867 20.343467-99.191467 30.583467-151.995734 30.583467a389.666133 389.666133 0 0 1-276.138666-114.210133 388.096 388.096 0 0 1-83.626667-124.074667 387.242667 387.242667 0 0 1-30.6176-151.893333 389.12 389.12 0 0 1 114.244267-275.933867 388.539733 388.539733 0 0 1 124.142933-83.626667c33.792-14.097067 69.0176-23.3472 105.1648-27.7504z m46.933333-49.698133C229.853867 115.3024 34.030933 311.057067 34.030933 552.413867c0 241.390933 195.822933 437.1456 437.316267 437.1456 241.493333 0 437.3504-195.754667 437.3504-437.1456v-0.853334H471.3472V115.370667z" fill="#ffffff" p-id="8889"></path><path d="M569.685333 51.746133c46.626133 1.809067 92.16 11.264 135.509334 28.16a416.9728 416.9728 0 0 1 127.556266 78.370134 419.328 419.328 0 0 1 139.844267 295.389866H569.685333V51.746133z m-17.066666-17.408v436.258134h437.3504c0-17.373867-1.058133-34.440533-3.072-51.3024-25.736533-216.746667-210.363733-384.955733-434.244267-384.955734zM248.251733 787.626667a340.6848 340.6848 0 0 1-61.098666-82.875734l-15.701334 6.929067a361.403733 361.403733 0 0 0 175.991467 163.7376l4.573867-16.657067a338.944 338.944 0 0 1-103.765334-71.133866z" fill="#ffffff" p-id="8890"></path></svg>